<svg width="32" height="32" viewBox="0 0 32 32" fill="none" xmlns="http://www.w3.org/2000/svg">
<rect width="32" height="32" rx="16" fill="url(#paint0_linear_298_148)"/>
<path d="M24.6566 14.1457C24.6566 11.7549 23.4986 9.63448 21.7129 8.31481C21.744 8.26997 21.7736 8.22707 21.8018 8.18613C22.0868 7.77906 22.2503 7.54458 22.2908 7.48483C22.3465 7.42579 22.3771 7.35346 22.3771 7.27154C22.3771 7.16526 22.3285 7.07857 22.2367 7.02456C22.1531 6.97541 22.0407 6.95716 21.9127 6.95716C21.627 6.95716 21.3792 7.11834 21.1683 7.40425L20.8773 7.78143C19.8476 7.21942 18.6666 6.9 17.4109 6.9C13.4092 6.9 10.1652 10.144 10.1652 14.1457C10.1652 15.7639 10.6957 17.2583 11.5922 18.4643C11.3403 18.7504 11.0891 19.0425 10.8389 19.3406C9.86526 20.5003 9.13253 21.4966 8.64269 22.3286C8.1548 23.1573 7.9 23.8359 7.9 24.3569C7.9 24.5851 7.96039 24.7734 8.1006 24.8993C8.21979 25.0329 8.3747 25.1 8.55736 25.1C8.6265 25.1 8.70023 25.0783 8.7755 25.0437C8.85168 25.0088 8.93551 24.9579 9.02654 24.8928C9.20853 24.7626 9.42734 24.5698 9.68226 24.3166C10.1925 23.81 10.8566 23.0524 11.6737 22.0458C12.1424 21.4684 12.6619 20.8084 13.2323 20.0659C14.4131 20.9008 15.8547 21.3914 17.4109 21.3914C21.4126 21.3914 24.6566 18.1474 24.6566 14.1457ZM20.6234 15.3505C21.4504 14.7928 22.5006 13.9903 23.7736 12.944C23.8467 13.3334 23.8849 13.7351 23.8849 14.1457C23.8849 17.7212 20.9864 20.6197 17.4109 20.6197C16.0309 20.6197 14.7517 20.1879 13.7011 19.4521C15.0259 17.7082 16.6007 15.5584 18.4254 13.0032C18.8599 12.7026 19.2326 12.4787 19.5441 12.3298C19.8484 12.1844 20.086 12.1148 20.2617 12.1095C20.2526 12.1494 20.2347 12.201 20.2047 12.266C20.1585 12.3659 20.0878 12.4885 19.9911 12.6345C19.7977 12.9263 19.5059 13.3033 19.114 13.7664C18.7196 14.2254 18.4213 14.6155 18.2211 14.9359C18.0238 15.2516 17.9111 15.5156 17.9111 15.7177C17.9111 15.9045 17.9711 16.0602 18.1044 16.1659C18.2332 16.2681 18.415 16.3108 18.6328 16.3108C18.8354 16.3108 19.1032 16.2233 19.4283 16.0649C19.7565 15.9048 20.1552 15.6662 20.6234 15.3505ZM20.5154 10.0301C20.8041 9.61864 21.0564 9.2582 21.2722 8.94875C22.3995 9.78772 23.2445 10.9848 23.6388 12.3716L23.2862 12.6601C23.2861 12.6602 23.286 12.6603 23.2859 12.6604C22.4024 13.3729 21.4402 14.0785 20.3992 14.7772L20.399 14.7774C20.1367 14.9546 19.9161 15.0857 19.7363 15.1721C19.5538 15.2598 19.4241 15.2962 19.3402 15.2962C19.2464 15.2962 19.1923 15.2822 19.1647 15.2665C19.1456 15.2555 19.1401 15.2456 19.1401 15.2247C19.1401 15.215 19.1446 15.1906 19.166 15.1468C19.1867 15.1048 19.2193 15.0523 19.2656 14.9889C19.3581 14.862 19.4993 14.6997 19.6909 14.5009L19.6909 14.5009C20.2648 13.9055 20.6983 13.3841 20.989 12.9372C21.2778 12.4932 21.4339 12.1103 21.4339 11.7948C21.4339 11.7291 21.4127 11.6688 21.3705 11.6182C21.3298 11.5694 21.2737 11.5344 21.2102 11.509C21.085 11.4589 20.9088 11.4375 20.6908 11.4375C20.4663 11.4375 20.1944 11.5009 19.8782 11.6209C19.6602 11.7036 19.4184 11.8142 19.153 11.9524C19.5819 11.342 20.0358 10.7014 20.5149 10.0307L20.5154 10.0301ZM11.1215 19.897C11.3936 19.5644 11.6711 19.2362 11.9539 18.9125C12.152 19.1391 12.3639 19.3532 12.5885 19.5536C11.9582 20.4286 11.4043 21.1806 10.9269 21.8097C10.3146 22.6165 9.82934 23.2196 9.47033 23.6202C9.29059 23.8208 9.14451 23.9685 9.03135 24.0651C8.97466 24.1136 8.92854 24.1472 8.89236 24.1683C8.87439 24.1787 8.86038 24.1852 8.85 24.1889C8.84025 24.1923 8.83594 24.1926 8.83594 24.1926C8.82116 24.1926 8.81372 24.1906 8.81062 24.1894C8.80941 24.1863 8.80742 24.1788 8.80742 24.164C8.80742 23.695 8.99341 23.105 9.37959 22.3893C9.76489 21.6752 10.3448 20.8447 11.1214 19.897L11.1215 19.897ZM15.6591 15.1935C14.6841 16.6011 13.8114 17.8441 13.0411 18.9226C12.8391 18.7377 12.6489 18.5402 12.4718 18.3314C13.4705 17.2324 14.5329 16.1864 15.6591 15.1935ZM16.8228 13.4831C15.2236 14.7257 13.6557 16.1902 12.1191 17.8762C11.3743 16.8217 10.9368 15.5348 10.9368 14.1457C10.9368 10.5702 13.8354 7.67166 17.4109 7.67166C18.4868 7.67166 19.5014 7.93411 20.3942 8.39848C20.0001 8.8755 19.4113 9.51226 18.6259 10.3097C17.6996 11.2502 16.6948 12.1625 15.6113 13.0464L15.5612 13.0872L15.5779 13.1496L15.6636 13.4712L15.702 13.6151L15.8207 13.5251L16.4423 13.0535L16.4424 13.0535L16.4441 13.0521C17.0744 12.5507 17.5845 12.1108 17.9736 11.7325C18.0319 11.6759 18.0875 11.6205 18.1405 11.5665L16.8228 13.4831Z" fill="white" stroke="white" stroke-width="0.2"/>
<defs>
<linearGradient id="paint0_linear_298_148" x1="16" y1="11.5" x2="27" y2="99.5" gradientUnits="userSpaceOnUse">
<stop stop-color="#121212"/>
<stop offset="1" stop-color="#0AE361"/>
</linearGradient>
</defs>
</svg>
