<svg width="32" height="32" viewBox="0 0 32 32" fill="none" xmlns="http://www.w3.org/2000/svg">
<path fill-rule="evenodd" clip-rule="evenodd" d="M16 32C24.8366 32 32 24.8366 32 16C32 7.16344 24.8366 0 16 0C7.16344 0 0 7.16344 0 16C0 24.8366 7.16344 32 16 32ZM17.4109 21.2914C21.3573 21.2914 24.5566 18.0921 24.5566 14.1457C24.5566 11.753 23.3806 9.63505 21.5751 8.33815L21.7197 8.12902C22.0198 7.70028 22.1842 7.46447 22.2128 7.4216C22.2557 7.37872 22.2771 7.3287 22.2771 7.27154C22.2771 7.12862 22.1556 7.05716 21.9127 7.05716C21.6697 7.05716 21.4482 7.19293 21.2481 7.46447L20.904 7.91053C19.8712 7.33067 18.6796 7 17.4109 7C13.4644 7 10.2652 10.1992 10.2652 14.1457C10.2652 15.7706 10.8076 17.2689 11.7212 18.4693C11.4516 18.7743 11.1831 19.0861 10.9154 19.4049C8.97181 21.7201 8 23.3708 8 24.3569C8 24.5713 8.05717 24.7285 8.1715 24.8285C8.27154 24.9428 8.40016 25 8.55736 25C9.06691 25 10.6184 23.3094 13.212 19.9282C14.3907 20.7856 15.8417 21.2914 17.4109 21.2914ZM13.5591 19.4737C14.8982 17.7134 16.4966 15.5324 18.3541 12.9309C19.2402 12.3164 19.8833 12.0091 20.2834 12.0091C20.312 12.0091 20.3406 12.0234 20.3692 12.052C20.3692 12.3092 19.9762 12.9023 19.1902 13.8313C18.4041 14.7459 18.0111 15.3748 18.0111 15.7177C18.0111 16.0464 18.2183 16.2108 18.6328 16.2108C19.3161 16.2108 21.0514 15.0608 23.8388 12.7607C23.9345 13.2072 23.9849 13.6706 23.9849 14.1457C23.9849 17.7764 21.0416 20.7197 17.4109 20.7197C15.9722 20.7197 14.6415 20.2576 13.5591 19.4737ZM23.7527 12.4076C23.351 10.9385 22.4524 9.67451 21.2488 8.80761C21.0205 9.13512 20.7487 9.52345 20.4335 9.97261C19.8619 10.7729 19.3259 11.5304 18.8257 12.2449C19.6546 11.7733 20.2763 11.5375 20.6908 11.5375C21.1195 11.5375 21.3339 11.6233 21.3339 11.7948C21.3339 12.3664 20.7622 13.2453 19.6189 14.4315C19.233 14.8317 19.0401 15.0961 19.0401 15.2247C19.0401 15.339 19.1401 15.3962 19.3402 15.3962C19.5546 15.3962 19.9262 15.2175 20.4549 14.8603C21.4982 14.16 22.4629 13.4526 23.3489 12.738L23.7527 12.4076ZM20.5487 8.36741C19.6162 7.85996 18.5472 7.57166 17.4109 7.57166C13.7801 7.57166 10.8368 10.515 10.8368 14.1457C10.8368 15.6009 11.3097 16.9457 12.11 18.0348C13.6738 16.3097 15.2692 14.8156 16.8964 13.5526L18.7829 10.8087V10.7872C18.7829 10.7443 18.7543 10.7229 18.6971 10.7229C18.4113 11.2231 17.6395 11.9734 16.3819 12.9738L15.7602 13.4454L15.6745 13.1239C16.7606 12.2378 17.7682 11.3231 18.6971 10.3799C19.5355 9.52866 20.1527 8.85782 20.5487 8.36741ZM11.9546 18.76C12.1904 19.0386 12.4472 19.2989 12.7226 19.5385C10.4419 22.7079 9.14637 24.2926 8.83605 24.2926C8.7503 24.2926 8.70742 24.2497 8.70742 24.164C8.70742 23.1778 9.4863 21.7344 11.0441 19.8337C11.3412 19.4705 11.6447 19.1126 11.9546 18.76ZM12.3391 18.3287C13.5314 17.011 14.8147 15.7691 16.189 14.603C15.0031 16.3211 13.9592 17.8106 13.0574 19.0717C12.799 18.8433 12.5588 18.5948 12.3391 18.3287Z" fill="url(#paint0_linear_280_141)"/>
<defs>
<linearGradient id="paint0_linear_280_141" x1="16" y1="16" x2="22" y2="67" gradientUnits="userSpaceOnUse">
<stop stop-color="#121212"/>
<stop offset="1" stop-color="#0AE361"/>
</linearGradient>
</defs>
</svg>
